<?xml version="1.0" encoding="UTF-8"?>
<svg xmlns="http://www.w3.org/2000/svg" version="1.1" viewBox="0 0 1000 1000">
  <defs>
    <style>
      .cls-1 {
        fill: #f73c00;
      }
    </style>
  </defs>
  <!-- Generator: Adobe Illustrator 28.6.0, SVG Export Plug-In . SVG Version: 1.2.0 Build 709)  -->
  <g>
    <g id="Ebene_1">
      <path class="cls-1" d="M999.8,500.1l-.3-.4C999.4,89.4,910,0,499.7,0l.2.2C89.6.2.2,89.6.2,499.9l.3.4c0,410.3,89.4,499.7,499.7,499.7l-.2-.2c410.3,0,499.7-89.4,499.7-499.7ZM186.8,331.7c-5.3-6.1-7.5-13.9-4.3-22.6,3.2-8.8,9.7-13.7,19-14.8.9-.1,1.7,0,2.6,0,18.8,0,37.6.1,56.4.2,0-18.9.1-37.8.2-56.7,0-13.9,11.5-24.4,25-23.1,11,1.1,19.5,10,20.1,21.1,0,.8,0,1.6,0,2.3,0,18.8-.1,37.7-.2,56.5,18.9,0,37.8.1,56.8.2,13.9,0,24.4,11.5,23.1,25-1.1,11-10,19.5-21.1,20.1-.8,0-1.6,0-2.3,0-18.9,0-37.7-.1-56.6-.2,0,18.5-.1,37.1-.2,55.6,0,6.7-2.1,12.4-7.6,18-6.1,5.3-13.9,7.5-22.6,4.3-8.8-3.2-13.7-9.7-14.8-19-.1-.9,0-1.7,0-2.6,0-18.8.1-37.7.2-56.5-18.5,0-37.1-.1-55.6-.2-6.7,0-12.4-2.1-18-7.6ZM243.4,737c-17.7-6.4-29.2-23.7-29.3-42.6,0-12,4.3-22.4,12.3-31.2,1.5-1.7,3.2-3.3,4.8-4.9,142.9-142.9,285.9-285.8,428.8-428.8,13.3-13.3,28.9-18.6,47.3-13.3,32,9.3,43.4,48.7,21.5,73.8-1.3,1.5-2.6,2.8-4,4.2-143.6,143.5-287.1,287.1-430.7,430.6-14.5,14.5-31.4,19.2-50.8,12.1ZM774.3,541.9c-1.1,1.2-2.2,2.3-3.3,3.4-75.2,75.2-150.4,150.4-225.6,225.6-9.6,9.6-20.8,14.9-36.7,15-16.3-1.1-30.6-9.3-38.5-26.4-8-17.2-5.6-33.7,6.1-48.7,1.1-1.4,2.3-2.6,3.6-3.9,75.7-75.7,151.4-151.4,227.1-227.1,20-20,51.4-18.6,68.7,2.7,14.2,17.5,13.6,42.5-1.4,59.3Z"/>
    </g>
  </g>
</svg>